<svg width="2998" height="66" viewBox="0 0 2998 66" fill="none" xmlns="http://www.w3.org/2000/svg">
<path d="M43.104 26.792C43.104 32.552 42 37.376 39.792 41.264C37.584 45.152 34.368 48.08 30.144 50.048C25.968 52.016 20.928 53 15.024 53H0.48V1.592H16.608C21.984 1.592 26.64 2.552 30.576 4.472C34.56 6.392 37.632 9.224 39.792 12.968C42 16.664 43.104 21.272 43.104 26.792ZM31.8 27.08C31.8 23.288 31.248 20.168 30.144 17.72C29.04 15.272 27.384 13.472 25.176 12.32C23.016 11.12 20.352 10.52 17.184 10.52H11.352V44H16.032C21.36 44 25.32 42.584 27.912 39.752C30.504 36.92 31.8 32.696 31.8 27.08ZM83.3689 53H53.7769V1.592H83.3689V10.52H64.6489V21.824H82.0729V30.752H64.6489V44H83.3689V53ZM115.81 53L103.426 12.68H103.138C103.186 13.64 103.258 15.08 103.354 17C103.45 18.92 103.546 20.984 103.642 23.192C103.738 25.352 103.786 27.32 103.786 29.096V53H94.0659V1.592H108.898L121.066 40.904H121.282L134.17 1.592H149.002V53H138.85V28.664C138.85 27.032 138.874 25.16 138.922 23.048C139.018 20.936 139.09 18.944 139.138 17.072C139.234 15.152 139.306 13.712 139.354 12.752H139.066L125.818 53H115.81ZM208.644 27.224C208.644 31.208 208.14 34.832 207.132 38.096C206.172 41.312 204.684 44.096 202.668 46.448C200.7 48.8 198.156 50.6 195.036 51.848C191.964 53.096 188.34 53.72 184.164 53.72C179.988 53.72 176.34 53.096 173.22 51.848C170.148 50.552 167.604 48.752 165.588 46.448C163.62 44.096 162.132 41.288 161.124 38.024C160.164 34.76 159.684 31.136 159.684 27.152C159.684 21.824 160.548 17.192 162.276 13.256C164.052 9.32 166.74 6.272 170.34 4.112C173.988 1.904 178.62 0.799998 184.236 0.799998C189.804 0.799998 194.388 1.904 197.988 4.112C201.588 6.272 204.252 9.344 205.98 13.328C207.756 17.264 208.644 21.896 208.644 27.224ZM171.132 27.224C171.132 30.824 171.588 33.92 172.5 36.512C173.412 39.104 174.828 41.096 176.748 42.488C178.668 43.88 181.14 44.576 184.164 44.576C187.284 44.576 189.78 43.88 191.652 42.488C193.572 41.096 194.964 39.104 195.828 36.512C196.74 33.92 197.196 30.824 197.196 27.224C197.196 21.8 196.188 17.552 194.172 14.48C192.156 11.408 188.844 9.872 184.236 9.872C181.164 9.872 178.668 10.568 176.748 11.96C174.828 13.352 173.412 15.344 172.5 17.936C171.588 20.528 171.132 23.624 171.132 27.224ZM214.973 38.096V29.312H233.837V38.096H214.973ZM272.808 38.744C272.808 41.768 272.064 44.408 270.576 46.664C269.088 48.92 266.928 50.672 264.096 51.92C261.312 53.12 257.904 53.72 253.872 53.72C252.096 53.72 250.344 53.6 248.616 53.36C246.936 53.12 245.304 52.784 243.72 52.352C242.184 51.872 240.72 51.296 239.328 50.624V40.472C241.776 41.528 244.296 42.512 246.888 43.424C249.528 44.288 252.144 44.72 254.736 44.72C256.512 44.72 257.928 44.48 258.984 44C260.088 43.52 260.88 42.872 261.36 42.056C261.888 41.24 262.152 40.304 262.152 39.248C262.152 37.952 261.696 36.848 260.784 35.936C259.92 35.024 258.744 34.184 257.256 33.416C255.768 32.6 254.064 31.736 252.144 30.824C250.944 30.248 249.648 29.576 248.256 28.808C246.864 27.992 245.52 27.008 244.224 25.856C242.976 24.656 241.944 23.216 241.128 21.536C240.312 19.856 239.904 17.84 239.904 15.488C239.904 12.416 240.6 9.8 241.992 7.64C243.432 5.432 245.448 3.752 248.04 2.6C250.68 1.448 253.776 0.871997 257.328 0.871997C260.016 0.871997 262.56 1.184 264.96 1.808C267.408 2.432 269.952 3.32 272.592 4.472L269.064 12.968C266.712 12.008 264.6 11.264 262.728 10.736C260.856 10.208 258.936 9.944 256.968 9.944C255.624 9.944 254.472 10.16 253.512 10.592C252.552 11.024 251.808 11.624 251.28 12.392C250.8 13.16 250.56 14.072 250.56 15.128C250.56 16.328 250.92 17.36 251.64 18.224C252.36 19.04 253.44 19.832 254.88 20.6C256.32 21.368 258.12 22.28 260.28 23.336C262.92 24.584 265.152 25.88 266.976 27.224C268.848 28.568 270.288 30.152 271.296 31.976C272.304 33.8 272.808 36.056 272.808 38.744ZM301.376 53H277.976V46.808L284.24 43.928V10.664L277.976 7.784V1.592H301.376V7.784L295.112 10.664V43.928L301.376 46.808V53ZM329.936 53H319.064V10.664H305.096V1.592H343.904V10.664H329.936V53ZM381.424 53H351.832V1.592H381.424V10.52H362.704V21.824H380.128V30.752H362.704V44H381.424V53ZM432.64 9.944C430.576 9.944 428.728 10.352 427.096 11.168C425.512 11.984 424.168 13.16 423.064 14.696C421.96 16.184 421.12 18.008 420.544 20.168C420.016 22.328 419.752 24.752 419.752 27.44C419.752 31.088 420.184 34.208 421.048 36.8C421.96 39.344 423.376 41.288 425.296 42.632C427.216 43.976 429.664 44.648 432.64 44.648C434.752 44.648 436.84 44.408 438.904 43.928C441.016 43.448 443.296 42.776 445.744 41.912V51.056C443.488 51.968 441.256 52.64 439.048 53.072C436.84 53.504 434.368 53.72 431.632 53.72C426.352 53.72 421.984 52.64 418.528 50.48C415.12 48.272 412.6 45.2 410.968 41.264C409.336 37.28 408.52 32.648 408.52 27.368C408.52 23.48 409.048 19.928 410.104 16.712C411.16 13.448 412.696 10.64 414.712 8.288C416.776 5.936 419.296 4.112 422.272 2.816C425.296 1.52 428.752 0.871997 432.64 0.871997C435.184 0.871997 437.728 1.208 440.272 1.88C442.864 2.504 445.336 3.368 447.688 4.472L444.16 13.328C442.24 12.416 440.296 11.624 438.328 10.952C436.408 10.28 434.512 9.944 432.64 9.944ZM501.917 27.224C501.917 31.208 501.413 34.832 500.405 38.096C499.445 41.312 497.957 44.096 495.941 46.448C493.973 48.8 491.429 50.6 488.309 51.848C485.237 53.096 481.613 53.72 477.437 53.72C473.261 53.72 469.613 53.096 466.493 51.848C463.421 50.552 460.877 48.752 458.861 46.448C456.893 44.096 455.405 41.288 454.397 38.024C453.437 34.76 452.957 31.136 452.957 27.152C452.957 21.824 453.821 17.192 455.549 13.256C457.325 9.32 460.013 6.272 463.613 4.112C467.261 1.904 471.893 0.799998 477.509 0.799998C483.077 0.799998 487.661 1.904 491.261 4.112C494.861 6.272 497.525 9.344 499.253 13.328C501.029 17.264 501.917 21.896 501.917 27.224ZM464.405 27.224C464.405 30.824 464.861 33.92 465.773 36.512C466.685 39.104 468.101 41.096 470.021 42.488C471.941 43.88 474.413 44.576 477.437 44.576C480.557 44.576 483.053 43.88 484.925 42.488C486.845 41.096 488.237 39.104 489.101 36.512C490.013 33.92 490.469 30.824 490.469 27.224C490.469 21.8 489.461 17.552 487.445 14.48C485.429 11.408 482.117 9.872 477.509 9.872C474.437 9.872 471.941 10.568 470.021 11.96C468.101 13.352 466.685 15.344 465.773 17.936C464.861 20.528 464.405 23.624 464.405 27.224ZM534.31 53L521.926 12.68H521.638C521.686 13.64 521.758 15.08 521.854 17C521.95 18.92 522.046 20.984 522.142 23.192C522.238 25.352 522.286 27.32 522.286 29.096V53H512.566V1.592H527.398L539.566 40.904H539.782L552.67 1.592H567.502V53H557.35V28.664C557.35 27.032 557.374 25.16 557.422 23.048C557.518 20.936 557.59 18.944 557.638 17.072C557.734 15.152 557.806 13.712 557.854 12.752H557.566L544.318 53H534.31ZM596.904 1.592C603.528 1.592 608.352 3.032 611.376 5.912C614.448 8.744 615.984 12.656 615.984 17.648C615.984 19.904 615.648 22.064 614.976 24.128C614.304 26.144 613.176 27.968 611.592 29.6C610.056 31.184 608.016 32.432 605.472 33.344C602.928 34.256 599.784 34.712 596.04 34.712H591.36V53H580.488V1.592H596.904ZM596.328 10.52H591.36V25.784H594.96C597.024 25.784 598.8 25.52 600.288 24.992C601.776 24.464 602.928 23.624 603.744 22.472C604.56 21.32 604.968 19.832 604.968 18.008C604.968 15.464 604.272 13.592 602.88 12.392C601.488 11.144 599.304 10.52 596.328 10.52ZM653.577 53L649.833 40.76H631.113L627.369 53H615.633L633.777 1.376H647.097L665.313 53H653.577ZM643.497 19.664C643.257 18.848 642.945 17.816 642.561 16.568C642.177 15.32 641.793 14.048 641.409 12.752C641.025 11.456 640.713 10.328 640.473 9.368C640.233 10.328 639.897 11.528 639.465 12.968C639.081 14.36 638.697 15.704 638.313 17C637.977 18.248 637.713 19.136 637.521 19.664L633.849 31.616H647.241L643.497 19.664ZM717.4 53H703.576L681.184 14.12H680.896C680.944 15.32 680.992 16.544 681.04 17.792C681.088 18.992 681.136 20.216 681.184 21.464C681.28 22.664 681.352 23.888 681.4 25.136C681.448 26.336 681.496 27.56 681.544 28.808V53H671.824V1.592H685.576L707.896 40.112H708.112C708.064 38.912 708.016 37.736 707.968 36.584C707.92 35.384 707.872 34.208 707.824 33.056C707.824 31.856 707.8 30.68 707.752 29.528C707.704 28.328 707.656 27.128 707.608 25.928V1.592H717.4V53ZM746.378 22.76L757.106 1.592H768.842L751.778 32.984V53H740.978V33.344L723.914 1.592H735.722L746.378 22.76ZM834.546 9.944C832.482 9.944 830.634 10.352 829.002 11.168C827.418 11.984 826.074 13.16 824.97 14.696C823.866 16.184 823.026 18.008 822.45 20.168C821.922 22.328 821.658 24.752 821.658 27.44C821.658 31.088 822.09 34.208 822.954 36.8C823.866 39.344 825.282 41.288 827.202 42.632C829.122 43.976 831.57 44.648 834.546 44.648C836.658 44.648 838.746 44.408 840.81 43.928C842.922 43.448 845.202 42.776 847.65 41.912V51.056C845.394 51.968 843.162 52.64 840.954 53.072C838.746 53.504 836.274 53.72 833.538 53.72C828.258 53.72 823.89 52.64 820.434 50.48C817.026 48.272 814.506 45.2 812.874 41.264C811.242 37.28 810.426 32.648 810.426 27.368C810.426 23.48 810.954 19.928 812.01 16.712C813.066 13.448 814.602 10.64 816.618 8.288C818.682 5.936 821.202 4.112 824.178 2.816C827.202 1.52 830.658 0.871997 834.546 0.871997C837.09 0.871997 839.634 1.208 842.178 1.88C844.77 2.504 847.242 3.368 849.594 4.472L846.066 13.328C844.146 12.416 842.202 11.624 840.234 10.952C838.314 10.28 836.418 9.944 834.546 9.944ZM903.824 27.224C903.824 31.208 903.32 34.832 902.312 38.096C901.352 41.312 899.864 44.096 897.848 46.448C895.88 48.8 893.336 50.6 890.216 51.848C887.144 53.096 883.52 53.72 879.344 53.72C875.168 53.72 871.52 53.096 868.4 51.848C865.328 50.552 862.784 48.752 860.768 46.448C858.8 44.096 857.312 41.288 856.304 38.024C855.344 34.76 854.864 31.136 854.864 27.152C854.864 21.824 855.728 17.192 857.456 13.256C859.232 9.32 861.92 6.272 865.52 4.112C869.168 1.904 873.8 0.799998 879.416 0.799998C884.984 0.799998 889.568 1.904 893.168 4.112C896.768 6.272 899.432 9.344 901.16 13.328C902.936 17.264 903.824 21.896 903.824 27.224ZM866.312 27.224C866.312 30.824 866.768 33.92 867.68 36.512C868.592 39.104 870.008 41.096 871.928 42.488C873.848 43.88 876.32 44.576 879.344 44.576C882.464 44.576 884.96 43.88 886.832 42.488C888.752 41.096 890.144 39.104 891.008 36.512C891.92 33.92 892.376 30.824 892.376 27.224C892.376 21.8 891.368 17.552 889.352 14.48C887.336 11.408 884.024 9.872 879.416 9.872C876.344 9.872 873.848 10.568 871.928 11.96C870.008 13.352 868.592 15.344 867.68 17.936C866.768 20.528 866.312 23.624 866.312 27.224ZM960.048 53H946.224L923.832 14.12H923.544C923.592 15.32 923.64 16.544 923.688 17.792C923.736 18.992 923.784 20.216 923.832 21.464C923.928 22.664 924 23.888 924.048 25.136C924.096 26.336 924.144 27.56 924.192 28.808V53H914.472V1.592H928.224L950.544 40.112H950.76C950.712 38.912 950.664 37.736 950.616 36.584C950.568 35.384 950.52 34.208 950.472 33.056C950.472 31.856 950.448 30.68 950.4 29.528C950.352 28.328 950.304 27.128 950.256 25.928V1.592H960.048V53ZM992.843 53H981.971V10.664H968.003V1.592H1006.81V10.664H992.843V53ZM1041.14 53L1037.4 40.76H1018.68L1014.93 53H1003.2L1021.34 1.376H1034.66L1052.88 53H1041.14ZM1031.06 19.664C1030.82 18.848 1030.51 17.816 1030.12 16.568C1029.74 15.32 1029.36 14.048 1028.97 12.752C1028.59 11.456 1028.28 10.328 1028.04 9.368C1027.8 10.328 1027.46 11.528 1027.03 12.968C1026.64 14.36 1026.26 15.704 1025.88 17C1025.54 18.248 1025.28 19.136 1025.08 19.664L1021.41 31.616H1034.8L1031.06 19.664ZM1079.8 9.944C1077.73 9.944 1075.88 10.352 1074.25 11.168C1072.67 11.984 1071.32 13.16 1070.22 14.696C1069.12 16.184 1068.28 18.008 1067.7 20.168C1067.17 22.328 1066.91 24.752 1066.91 27.44C1066.91 31.088 1067.34 34.208 1068.2 36.8C1069.12 39.344 1070.53 41.288 1072.45 42.632C1074.37 43.976 1076.82 44.648 1079.8 44.648C1081.91 44.648 1084 44.408 1086.06 43.928C1088.17 43.448 1090.45 42.776 1092.9 41.912V51.056C1090.64 51.968 1088.41 52.64 1086.2 53.072C1084 53.504 1081.52 53.72 1078.79 53.72C1073.51 53.72 1069.14 52.64 1065.68 50.48C1062.28 48.272 1059.76 45.2 1058.12 41.264C1056.49 37.28 1055.68 32.648 1055.68 27.368C1055.68 23.48 1056.2 19.928 1057.26 16.712C1058.32 13.448 1059.85 10.64 1061.87 8.288C1063.93 5.936 1066.45 4.112 1069.43 2.816C1072.45 1.52 1075.91 0.871997 1079.8 0.871997C1082.34 0.871997 1084.88 1.208 1087.43 1.88C1090.02 2.504 1092.49 3.368 1094.84 4.472L1091.32 13.328C1089.4 12.416 1087.45 11.624 1085.48 10.952C1083.56 10.28 1081.67 9.944 1079.8 9.944ZM1123.62 53H1112.75V10.664H1098.78V1.592H1137.59V10.664H1123.62V53ZM1206.05 34.856C1206.05 38.408 1205.26 41.624 1203.68 44.504C1202.14 47.336 1199.79 49.592 1196.62 51.272C1193.5 52.904 1189.54 53.72 1184.74 53.72C1177.93 53.72 1172.74 51.992 1169.19 48.536C1165.64 45.032 1163.86 40.424 1163.86 34.712V1.592H1174.73V33.056C1174.73 37.28 1175.6 40.256 1177.33 41.984C1179.05 43.712 1181.62 44.576 1185.03 44.576C1187.43 44.576 1189.37 44.168 1190.86 43.352C1192.35 42.536 1193.43 41.264 1194.1 39.536C1194.82 37.808 1195.18 35.624 1195.18 32.984V1.592H1206.05V34.856ZM1248.96 38.744C1248.96 41.768 1248.21 44.408 1246.72 46.664C1245.24 48.92 1243.08 50.672 1240.24 51.92C1237.46 53.12 1234.05 53.72 1230.02 53.72C1228.24 53.72 1226.49 53.6 1224.76 53.36C1223.08 53.12 1221.45 52.784 1219.87 52.352C1218.33 51.872 1216.87 51.296 1215.48 50.624V40.472C1217.92 41.528 1220.44 42.512 1223.04 43.424C1225.68 44.288 1228.29 44.72 1230.88 44.72C1232.66 44.72 1234.08 44.48 1235.13 44C1236.24 43.52 1237.03 42.872 1237.51 42.056C1238.04 41.24 1238.3 40.304 1238.3 39.248C1238.3 37.952 1237.84 36.848 1236.93 35.936C1236.07 35.024 1234.89 34.184 1233.4 33.416C1231.92 32.6 1230.21 31.736 1228.29 30.824C1227.09 30.248 1225.8 29.576 1224.4 28.808C1223.01 27.992 1221.67 27.008 1220.37 25.856C1219.12 24.656 1218.09 23.216 1217.28 21.536C1216.46 19.856 1216.05 17.84 1216.05 15.488C1216.05 12.416 1216.75 9.8 1218.14 7.64C1219.58 5.432 1221.6 3.752 1224.19 2.6C1226.83 1.448 1229.92 0.871997 1233.48 0.871997C1236.16 0.871997 1238.71 1.184 1241.11 1.808C1243.56 2.432 1246.1 3.32 1248.74 4.472L1245.21 12.968C1242.86 12.008 1240.75 11.264 1238.88 10.736C1237 10.208 1235.08 9.944 1233.12 9.944C1231.77 9.944 1230.62 10.16 1229.66 10.592C1228.7 11.024 1227.96 11.624 1227.43 12.392C1226.95 13.16 1226.71 14.072 1226.71 15.128C1226.71 16.328 1227.07 17.36 1227.79 18.224C1228.51 19.04 1229.59 19.832 1231.03 20.6C1232.47 21.368 1234.27 22.28 1236.43 23.336C1239.07 24.584 1241.3 25.88 1243.12 27.224C1245 28.568 1246.44 30.152 1247.44 31.976C1248.45 33.8 1248.96 36.056 1248.96 38.744ZM1287.73 53H1277V1.592H1306.45V10.52H1287.73V23.768H1305.16V32.696H1287.73V53ZM1363.18 27.224C1363.18 31.208 1362.67 34.832 1361.66 38.096C1360.7 41.312 1359.22 44.096 1357.2 46.448C1355.23 48.8 1352.69 50.6 1349.57 51.848C1346.5 53.096 1342.87 53.72 1338.7 53.72C1334.52 53.72 1330.87 53.096 1327.75 51.848C1324.68 50.552 1322.14 48.752 1320.12 46.448C1318.15 44.096 1316.66 41.288 1315.66 38.024C1314.7 34.76 1314.22 31.136 1314.22 27.152C1314.22 21.824 1315.08 17.192 1316.81 13.256C1318.58 9.32 1321.27 6.272 1324.87 4.112C1328.52 1.904 1333.15 0.799998 1338.77 0.799998C1344.34 0.799998 1348.92 1.904 1352.52 4.112C1356.12 6.272 1358.78 9.344 1360.51 13.328C1362.29 17.264 1363.18 21.896 1363.18 27.224ZM1325.66 27.224C1325.66 30.824 1326.12 33.92 1327.03 36.512C1327.94 39.104 1329.36 41.096 1331.28 42.488C1333.2 43.88 1335.67 44.576 1338.7 44.576C1341.82 44.576 1344.31 43.88 1346.18 42.488C1348.1 41.096 1349.5 39.104 1350.36 36.512C1351.27 33.92 1351.73 30.824 1351.73 27.224C1351.73 21.8 1350.72 17.552 1348.7 14.48C1346.69 11.408 1343.38 9.872 1338.77 9.872C1335.7 9.872 1333.2 10.568 1331.28 11.96C1329.36 13.352 1327.94 15.344 1327.03 17.936C1326.12 20.528 1325.66 23.624 1325.66 27.224ZM1388.8 1.592C1393.46 1.592 1397.3 2.168 1400.32 3.32C1403.34 4.424 1405.6 6.128 1407.09 8.432C1408.58 10.688 1409.32 13.544 1409.32 17C1409.32 19.352 1408.86 21.416 1407.95 23.192C1407.09 24.92 1405.91 26.408 1404.42 27.656C1402.98 28.856 1401.42 29.84 1399.74 30.608L1414.86 53H1402.77L1390.53 33.272H1384.7V53H1373.82V1.592H1388.8ZM1388.01 10.52H1384.7V24.416H1388.22C1390.62 24.416 1392.57 24.152 1394.06 23.624C1395.54 23.096 1396.62 22.304 1397.3 21.248C1397.97 20.144 1398.3 18.824 1398.3 17.288C1398.3 15.656 1397.92 14.36 1397.15 13.4C1396.43 12.392 1395.3 11.672 1393.77 11.24C1392.28 10.76 1390.36 10.52 1388.01 10.52ZM1456.04 1.592C1460.6 1.592 1464.42 2.024 1467.49 2.888C1470.61 3.704 1472.94 5.072 1474.47 6.992C1476.06 8.864 1476.85 11.408 1476.85 14.624C1476.85 16.544 1476.54 18.296 1475.91 19.88C1475.29 21.464 1474.38 22.76 1473.18 23.768C1472.03 24.776 1470.61 25.424 1468.93 25.712V26.072C1470.66 26.408 1472.22 27.008 1473.61 27.872C1475 28.736 1476.11 29.984 1476.92 31.616C1477.74 33.248 1478.15 35.408 1478.15 38.096C1478.15 41.216 1477.38 43.904 1475.84 46.16C1474.35 48.368 1472.19 50.072 1469.36 51.272C1466.53 52.424 1463.17 53 1459.28 53H1440.06V1.592H1456.04ZM1457.27 21.968C1460.43 21.968 1462.62 21.464 1463.82 20.456C1465.07 19.448 1465.69 17.984 1465.69 16.064C1465.69 14.096 1464.97 12.68 1463.53 11.816C1462.09 10.952 1459.81 10.52 1456.69 10.52H1450.93V21.968H1457.27ZM1450.93 30.608V44H1458.06C1461.32 44 1463.6 43.376 1464.9 42.128C1466.19 40.832 1466.84 39.128 1466.84 37.016C1466.84 35.72 1466.55 34.592 1465.98 33.632C1465.45 32.672 1464.51 31.928 1463.17 31.4C1461.83 30.872 1460 30.608 1457.7 30.608H1450.93ZM1530.27 34.856C1530.27 38.408 1529.47 41.624 1527.89 44.504C1526.35 47.336 1524 49.592 1520.83 51.272C1517.71 52.904 1513.75 53.72 1508.95 53.72C1502.14 53.72 1496.95 51.992 1493.4 48.536C1489.85 45.032 1488.07 40.424 1488.07 34.712V1.592H1498.95V33.056C1498.95 37.28 1499.81 40.256 1501.54 41.984C1503.27 43.712 1505.83 44.576 1509.24 44.576C1511.64 44.576 1513.59 44.168 1515.07 43.352C1516.56 42.536 1517.64 41.264 1518.31 39.536C1519.03 37.808 1519.39 35.624 1519.39 32.984V1.592H1530.27V34.856ZM1573.17 38.744C1573.17 41.768 1572.42 44.408 1570.94 46.664C1569.45 48.92 1567.29 50.672 1564.46 51.92C1561.67 53.12 1558.26 53.72 1554.23 53.72C1552.46 53.72 1550.7 53.6 1548.98 53.36C1547.3 53.12 1545.66 52.784 1544.08 52.352C1542.54 51.872 1541.08 51.296 1539.69 50.624V40.472C1542.14 41.528 1544.66 42.512 1547.25 43.424C1549.89 44.288 1552.5 44.72 1555.1 44.72C1556.87 44.72 1558.29 44.48 1559.34 44C1560.45 43.52 1561.24 42.872 1561.72 42.056C1562.25 41.24 1562.51 40.304 1562.51 39.248C1562.51 37.952 1562.06 36.848 1561.14 35.936C1560.28 35.024 1559.1 34.184 1557.62 33.416C1556.13 32.6 1554.42 31.736 1552.5 30.824C1551.3 30.248 1550.01 29.576 1548.62 28.808C1547.22 27.992 1545.88 27.008 1544.58 25.856C1543.34 24.656 1542.3 23.216 1541.49 21.536C1540.67 19.856 1540.26 17.84 1540.26 15.488C1540.26 12.416 1540.96 9.8 1542.35 7.64C1543.79 5.432 1545.81 3.752 1548.4 2.6C1551.04 1.448 1554.14 0.871997 1557.69 0.871997C1560.38 0.871997 1562.92 1.184 1565.32 1.808C1567.77 2.432 1570.31 3.32 1572.95 4.472L1569.42 12.968C1567.07 12.008 1564.96 11.264 1563.09 10.736C1561.22 10.208 1559.3 9.944 1557.33 9.944C1555.98 9.944 1554.83 10.16 1553.87 10.592C1552.91 11.024 1552.17 11.624 1551.64 12.392C1551.16 13.16 1550.92 14.072 1550.92 15.128C1550.92 16.328 1551.28 17.36 1552 18.224C1552.72 19.04 1553.8 19.832 1555.24 20.6C1556.68 21.368 1558.48 22.28 1560.64 23.336C1563.28 24.584 1565.51 25.88 1567.34 27.224C1569.21 28.568 1570.65 30.152 1571.66 31.976C1572.66 33.8 1573.17 36.056 1573.17 38.744ZM1601.74 53H1578.34V46.808L1584.6 43.928V10.664L1578.34 7.784V1.592H1601.74V7.784L1595.47 10.664V43.928L1601.74 46.808V53ZM1656.07 53H1642.25L1619.86 14.12H1619.57C1619.62 15.32 1619.66 16.544 1619.71 17.792C1619.76 18.992 1619.81 20.216 1619.86 21.464C1619.95 22.664 1620.02 23.888 1620.07 25.136C1620.12 26.336 1620.17 27.56 1620.22 28.808V53H1610.5V1.592H1624.25L1646.57 40.112H1646.78C1646.74 38.912 1646.69 37.736 1646.64 36.584C1646.59 35.384 1646.54 34.208 1646.5 33.056C1646.5 31.856 1646.47 30.68 1646.42 29.528C1646.38 28.328 1646.33 27.128 1646.28 25.928V1.592H1656.07V53ZM1698.66 53H1669.07V1.592H1698.66V10.52H1679.94V21.824H1697.36V30.752H1679.94V44H1698.66V53ZM1739.67 38.744C1739.67 41.768 1738.92 44.408 1737.44 46.664C1735.95 48.92 1733.79 50.672 1730.96 51.92C1728.17 53.12 1724.76 53.72 1720.73 53.72C1718.96 53.72 1717.2 53.6 1715.48 53.36C1713.8 53.12 1712.16 52.784 1710.58 52.352C1709.04 51.872 1707.58 51.296 1706.19 50.624V40.472C1708.64 41.528 1711.16 42.512 1713.75 43.424C1716.39 44.288 1719 44.72 1721.6 44.72C1723.37 44.72 1724.79 44.48 1725.84 44C1726.95 43.52 1727.74 42.872 1728.22 42.056C1728.75 41.24 1729.01 40.304 1729.01 39.248C1729.01 37.952 1728.56 36.848 1727.64 35.936C1726.78 35.024 1725.6 34.184 1724.12 33.416C1722.63 32.6 1720.92 31.736 1719 30.824C1717.8 30.248 1716.51 29.576 1715.12 28.808C1713.72 27.992 1712.38 27.008 1711.08 25.856C1709.84 24.656 1708.8 23.216 1707.99 21.536C1707.17 19.856 1706.76 17.84 1706.76 15.488C1706.76 12.416 1707.46 9.8 1708.85 7.64C1710.29 5.432 1712.31 3.752 1714.9 2.6C1717.54 1.448 1720.64 0.871997 1724.19 0.871997C1726.88 0.871997 1729.42 1.184 1731.82 1.808C1734.27 2.432 1736.81 3.32 1739.45 4.472L1735.92 12.968C1733.57 12.008 1731.46 11.264 1729.59 10.736C1727.72 10.208 1725.8 9.944 1723.83 9.944C1722.48 9.944 1721.33 10.16 1720.37 10.592C1719.41 11.024 1718.67 11.624 1718.14 12.392C1717.66 13.16 1717.42 14.072 1717.42 15.128C1717.42 16.328 1717.78 17.36 1718.5 18.224C1719.22 19.04 1720.3 19.832 1721.74 20.6C1723.18 21.368 1724.98 22.28 1727.14 23.336C1729.78 24.584 1732.01 25.88 1733.84 27.224C1735.71 28.568 1737.15 30.152 1738.16 31.976C1739.16 33.8 1739.67 36.056 1739.67 38.744ZM1779.32 38.744C1779.32 41.768 1778.58 44.408 1777.09 46.664C1775.6 48.92 1773.44 50.672 1770.61 51.92C1767.83 53.12 1764.42 53.72 1760.39 53.72C1758.61 53.72 1756.86 53.6 1755.13 53.36C1753.45 53.12 1751.82 52.784 1750.24 52.352C1748.7 51.872 1747.24 51.296 1745.84 50.624V40.472C1748.29 41.528 1750.81 42.512 1753.4 43.424C1756.04 44.288 1758.66 44.72 1761.25 44.72C1763.03 44.72 1764.44 44.48 1765.5 44C1766.6 43.52 1767.4 42.872 1767.88 42.056C1768.4 41.24 1768.67 40.304 1768.67 39.248C1768.67 37.952 1768.21 36.848 1767.3 35.936C1766.44 35.024 1765.26 34.184 1763.77 33.416C1762.28 32.6 1760.58 31.736 1758.66 30.824C1757.46 30.248 1756.16 29.576 1754.77 28.808C1753.38 27.992 1752.04 27.008 1750.74 25.856C1749.49 24.656 1748.46 23.216 1747.64 21.536C1746.83 19.856 1746.42 17.84 1746.42 15.488C1746.42 12.416 1747.12 9.8 1748.51 7.64C1749.95 5.432 1751.96 3.752 1754.56 2.6C1757.2 1.448 1760.29 0.871997 1763.84 0.871997C1766.53 0.871997 1769.08 1.184 1771.48 1.808C1773.92 2.432 1776.47 3.32 1779.11 4.472L1775.58 12.968C1773.23 12.008 1771.12 11.264 1769.24 10.736C1767.37 10.208 1765.45 9.944 1763.48 9.944C1762.14 9.944 1760.99 10.16 1760.03 10.592C1759.07 11.024 1758.32 11.624 1757.8 12.392C1757.32 13.16 1757.08 14.072 1757.08 15.128C1757.08 16.328 1757.44 17.36 1758.16 18.224C1758.88 19.04 1759.96 19.832 1761.4 20.6C1762.84 21.368 1764.64 22.28 1766.8 23.336C1769.44 24.584 1771.67 25.88 1773.49 27.224C1775.36 28.568 1776.8 30.152 1777.81 31.976C1778.82 33.8 1779.32 36.056 1779.32 38.744ZM1826.59 53H1803.19V46.808L1809.46 43.928V10.664L1803.19 7.784V1.592H1826.59V7.784L1820.33 10.664V43.928L1826.59 46.808V53ZM1880.93 53H1867.11L1844.72 14.12H1844.43C1844.48 15.32 1844.52 16.544 1844.57 17.792C1844.62 18.992 1844.67 20.216 1844.72 21.464C1844.81 22.664 1844.88 23.888 1844.93 25.136C1844.98 26.336 1845.03 27.56 1845.08 28.808V53H1835.36V1.592H1849.11L1871.43 40.112H1871.64C1871.6 38.912 1871.55 37.736 1871.5 36.584C1871.45 35.384 1871.4 34.208 1871.36 33.056C1871.36 31.856 1871.33 30.68 1871.28 29.528C1871.24 28.328 1871.19 27.128 1871.14 25.928V1.592H1880.93V53ZM1940.58 27.224C1940.58 31.064 1940.13 34.568 1939.21 37.736C1938.3 40.904 1936.91 43.664 1935.04 46.016C1933.17 48.32 1930.79 50.12 1927.91 51.416L1940.29 65.24H1926.33L1916.89 53.72C1916.75 53.72 1916.61 53.72 1916.46 53.72C1916.37 53.72 1916.25 53.72 1916.1 53.72C1911.93 53.72 1908.28 53.096 1905.16 51.848C1902.09 50.552 1899.54 48.752 1897.53 46.448C1895.56 44.096 1894.07 41.288 1893.06 38.024C1892.1 34.76 1891.62 31.136 1891.62 27.152C1891.62 21.824 1892.49 17.192 1894.21 13.256C1895.99 9.32 1898.68 6.272 1902.28 4.112C1905.93 1.904 1910.56 0.799998 1916.17 0.799998C1921.74 0.799998 1926.33 1.904 1929.93 4.112C1933.53 6.272 1936.19 9.344 1937.92 13.328C1939.69 17.264 1940.58 21.896 1940.58 27.224ZM1903.07 27.224C1903.07 30.824 1903.53 33.92 1904.44 36.512C1905.35 39.104 1906.77 41.096 1908.69 42.488C1910.61 43.88 1913.08 44.576 1916.1 44.576C1919.22 44.576 1921.72 43.88 1923.59 42.488C1925.51 41.096 1926.9 39.104 1927.77 36.512C1928.68 33.92 1929.13 30.824 1929.13 27.224C1929.13 21.8 1928.13 17.552 1926.11 14.48C1924.09 11.408 1920.78 9.872 1916.17 9.872C1913.1 9.872 1910.61 10.568 1908.69 11.96C1906.77 13.352 1905.35 15.344 1904.44 17.936C1903.53 20.528 1903.07 23.624 1903.07 27.224ZM1993.06 34.856C1993.06 38.408 1992.27 41.624 1990.69 44.504C1989.15 47.336 1986.8 49.592 1983.63 51.272C1980.51 52.904 1976.55 53.72 1971.75 53.72C1964.93 53.72 1959.75 51.992 1956.2 48.536C1952.65 45.032 1950.87 40.424 1950.87 34.712V1.592H1961.74V33.056C1961.74 37.28 1962.61 40.256 1964.33 41.984C1966.06 43.712 1968.63 44.576 1972.04 44.576C1974.44 44.576 1976.38 44.168 1977.87 43.352C1979.36 42.536 1980.44 41.264 1981.11 39.536C1981.83 37.808 1982.19 35.624 1982.19 32.984V1.592H1993.06V34.856ZM2024.88 53H2001.48V46.808L2007.74 43.928V10.664L2001.48 7.784V1.592H2024.88V7.784L2018.61 10.664V43.928L2024.88 46.808V53ZM2048.61 1.592C2053.27 1.592 2057.11 2.168 2060.13 3.32C2063.16 4.424 2065.41 6.128 2066.9 8.432C2068.39 10.688 2069.13 13.544 2069.13 17C2069.13 19.352 2068.68 21.416 2067.76 23.192C2066.9 24.92 2065.72 26.408 2064.24 27.656C2062.8 28.856 2061.24 29.84 2059.56 30.608L2074.68 53H2062.58L2050.34 33.272H2044.51V53H2033.64V1.592H2048.61ZM2047.82 10.52H2044.51V24.416H2048.04C2050.44 24.416 2052.38 24.152 2053.87 23.624C2055.36 23.096 2056.44 22.304 2057.11 21.248C2057.78 20.144 2058.12 18.824 2058.12 17.288C2058.12 15.656 2057.73 14.36 2056.96 13.4C2056.24 12.392 2055.12 11.672 2053.58 11.24C2052.09 10.76 2050.17 10.52 2047.82 10.52ZM2100.39 53H2076.99V46.808L2083.26 43.928V10.664L2076.99 7.784V1.592H2100.39V7.784L2094.13 10.664V43.928L2100.39 46.808V53ZM2138.74 53H2109.15V1.592H2138.74V10.52H2120.02V21.824H2137.45V30.752H2120.02V44H2138.74V53ZM2179.75 38.744C2179.75 41.768 2179.01 44.408 2177.52 46.664C2176.03 48.92 2173.87 50.672 2171.04 51.92C2168.26 53.12 2164.85 53.72 2160.82 53.72C2159.04 53.72 2157.29 53.6 2155.56 53.36C2153.88 53.12 2152.25 52.784 2150.66 52.352C2149.13 51.872 2147.66 51.296 2146.27 50.624V40.472C2148.72 41.528 2151.24 42.512 2153.83 43.424C2156.47 44.288 2159.09 44.72 2161.68 44.72C2163.46 44.72 2164.87 44.48 2165.93 44C2167.03 43.52 2167.82 42.872 2168.3 42.056C2168.83 41.24 2169.1 40.304 2169.1 39.248C2169.1 37.952 2168.64 36.848 2167.73 35.936C2166.86 35.024 2165.69 34.184 2164.2 33.416C2162.71 32.6 2161.01 31.736 2159.09 30.824C2157.89 30.248 2156.59 29.576 2155.2 28.808C2153.81 27.992 2152.46 27.008 2151.17 25.856C2149.92 24.656 2148.89 23.216 2148.07 21.536C2147.26 19.856 2146.85 17.84 2146.85 15.488C2146.85 12.416 2147.54 9.8 2148.94 7.64C2150.38 5.432 2152.39 3.752 2154.98 2.6C2157.62 1.448 2160.72 0.871997 2164.27 0.871997C2166.96 0.871997 2169.5 1.184 2171.9 1.808C2174.35 2.432 2176.9 3.32 2179.54 4.472L2176.01 12.968C2173.66 12.008 2171.54 11.264 2169.67 10.736C2167.8 10.208 2165.88 9.944 2163.91 9.944C2162.57 9.944 2161.42 10.16 2160.46 10.592C2159.5 11.024 2158.75 11.624 2158.22 12.392C2157.74 13.16 2157.5 14.072 2157.5 15.128C2157.5 16.328 2157.86 17.36 2158.58 18.224C2159.3 19.04 2160.38 19.832 2161.82 20.6C2163.26 21.368 2165.06 22.28 2167.22 23.336C2169.86 24.584 2172.1 25.88 2173.92 27.224C2175.79 28.568 2177.23 30.152 2178.24 31.976C2179.25 33.8 2179.75 36.056 2179.75 38.744ZM2254.46 27.224C2254.46 31.208 2253.95 34.832 2252.94 38.096C2251.98 41.312 2250.5 44.096 2248.48 46.448C2246.51 48.8 2243.97 50.6 2240.85 51.848C2237.78 53.096 2234.15 53.72 2229.98 53.72C2225.8 53.72 2222.15 53.096 2219.03 51.848C2215.96 50.552 2213.42 48.752 2211.4 46.448C2209.43 44.096 2207.94 41.288 2206.94 38.024C2205.98 34.76 2205.5 31.136 2205.5 27.152C2205.5 21.824 2206.36 17.192 2208.09 13.256C2209.86 9.32 2212.55 6.272 2216.15 4.112C2219.8 1.904 2224.43 0.799998 2230.05 0.799998C2235.62 0.799998 2240.2 1.904 2243.8 4.112C2247.4 6.272 2250.06 9.344 2251.79 13.328C2253.57 17.264 2254.46 21.896 2254.46 27.224ZM2216.94 27.224C2216.94 30.824 2217.4 33.92 2218.31 36.512C2219.22 39.104 2220.64 41.096 2222.56 42.488C2224.48 43.88 2226.95 44.576 2229.98 44.576C2233.1 44.576 2235.59 43.88 2237.46 42.488C2239.38 41.096 2240.78 39.104 2241.64 36.512C2242.55 33.92 2243.01 30.824 2243.01 27.224C2243.01 21.8 2242 17.552 2239.98 14.48C2237.97 11.408 2234.66 9.872 2230.05 9.872C2226.98 9.872 2224.48 10.568 2222.56 11.96C2220.64 13.352 2219.22 15.344 2218.31 17.936C2217.4 20.528 2216.94 23.624 2216.94 27.224ZM2280.08 1.592C2284.74 1.592 2288.58 2.168 2291.6 3.32C2294.63 4.424 2296.88 6.128 2298.37 8.432C2299.86 10.688 2300.6 13.544 2300.6 17C2300.6 19.352 2300.15 21.416 2299.23 23.192C2298.37 24.92 2297.19 26.408 2295.71 27.656C2294.27 28.856 2292.71 29.84 2291.03 30.608L2306.15 53H2294.05L2281.81 33.272H2275.98V53H2265.11V1.592H2280.08ZM2279.29 10.52H2275.98V24.416H2279.51C2281.91 24.416 2283.85 24.152 2285.34 23.624C2286.83 23.096 2287.91 22.304 2288.58 21.248C2289.25 20.144 2289.59 18.824 2289.59 17.288C2289.59 15.656 2289.2 14.36 2288.43 13.4C2287.71 12.392 2286.59 11.672 2285.05 11.24C2283.56 10.76 2281.64 10.52 2279.29 10.52ZM2353.16 9.944C2351.09 9.944 2349.24 10.352 2347.61 11.168C2346.03 11.984 2344.68 13.16 2343.58 14.696C2342.48 16.184 2341.64 18.008 2341.06 20.168C2340.53 22.328 2340.27 24.752 2340.27 27.44C2340.27 31.088 2340.7 34.208 2341.56 36.8C2342.48 39.344 2343.89 41.288 2345.81 42.632C2347.73 43.976 2350.18 44.648 2353.16 44.648C2355.27 44.648 2357.36 44.408 2359.42 43.928C2361.53 43.448 2363.81 42.776 2366.26 41.912V51.056C2364 51.968 2361.77 52.64 2359.56 53.072C2357.36 53.504 2354.88 53.72 2352.15 53.72C2346.87 53.72 2342.5 52.64 2339.04 50.48C2335.64 48.272 2333.12 45.2 2331.48 41.264C2329.85 37.28 2329.04 32.648 2329.04 27.368C2329.04 23.48 2329.56 19.928 2330.62 16.712C2331.68 13.448 2333.21 10.64 2335.23 8.288C2337.29 5.936 2339.81 4.112 2342.79 2.816C2345.81 1.52 2349.27 0.871997 2353.16 0.871997C2355.7 0.871997 2358.24 1.208 2360.79 1.88C2363.38 2.504 2365.85 3.368 2368.2 4.472L2364.68 13.328C2362.76 12.416 2360.81 11.624 2358.84 10.952C2356.92 10.28 2355.03 9.944 2353.16 9.944ZM2422.43 27.224C2422.43 31.208 2421.93 34.832 2420.92 38.096C2419.96 41.312 2418.47 44.096 2416.46 46.448C2414.49 48.8 2411.94 50.6 2408.82 51.848C2405.75 53.096 2402.13 53.72 2397.95 53.72C2393.78 53.72 2390.13 53.096 2387.01 51.848C2383.94 50.552 2381.39 48.752 2379.38 46.448C2377.41 44.096 2375.92 41.288 2374.91 38.024C2373.95 34.76 2373.47 31.136 2373.47 27.152C2373.47 21.824 2374.34 17.192 2376.06 13.256C2377.84 9.32 2380.53 6.272 2384.13 4.112C2387.78 1.904 2392.41 0.799998 2398.02 0.799998C2403.59 0.799998 2408.18 1.904 2411.78 4.112C2415.38 6.272 2418.04 9.344 2419.77 13.328C2421.54 17.264 2422.43 21.896 2422.43 27.224ZM2384.92 27.224C2384.92 30.824 2385.38 33.92 2386.29 36.512C2387.2 39.104 2388.62 41.096 2390.54 42.488C2392.46 43.88 2394.93 44.576 2397.95 44.576C2401.07 44.576 2403.57 43.88 2405.44 42.488C2407.36 41.096 2408.75 39.104 2409.62 36.512C2410.53 33.92 2410.98 30.824 2410.98 27.224C2410.98 21.8 2409.98 17.552 2407.96 14.48C2405.94 11.408 2402.63 9.872 2398.02 9.872C2394.95 9.872 2392.46 10.568 2390.54 11.96C2388.62 13.352 2387.2 15.344 2386.29 17.936C2385.38 20.528 2384.92 23.624 2384.92 27.224ZM2433.08 53V1.592H2443.95V44H2464.83V53H2433.08ZM2473.79 53V1.592H2484.66V44H2505.54V53H2473.79ZM2545.97 53L2542.22 40.76H2523.5L2519.76 53H2508.02L2526.17 1.376H2539.49L2557.7 53H2545.97ZM2535.89 19.664C2535.65 18.848 2535.34 17.816 2534.95 16.568C2534.57 15.32 2534.18 14.048 2533.8 12.752C2533.42 11.456 2533.1 10.328 2532.86 9.368C2532.62 10.328 2532.29 11.528 2531.86 12.968C2531.47 14.36 2531.09 15.704 2530.7 17C2530.37 18.248 2530.1 19.136 2529.91 19.664L2526.24 31.616H2539.63L2535.89 19.664ZM2580.2 1.592C2584.76 1.592 2588.57 2.024 2591.65 2.888C2594.77 3.704 2597.09 5.072 2598.63 6.992C2600.21 8.864 2601.01 11.408 2601.01 14.624C2601.01 16.544 2600.69 18.296 2600.07 19.88C2599.45 21.464 2598.53 22.76 2597.33 23.768C2596.18 24.776 2594.77 25.424 2593.09 25.712V26.072C2594.81 26.408 2596.37 27.008 2597.77 27.872C2599.16 28.736 2600.26 29.984 2601.08 31.616C2601.89 33.248 2602.3 35.408 2602.3 38.096C2602.3 41.216 2601.53 43.904 2600 46.16C2598.51 48.368 2596.35 50.072 2593.52 51.272C2590.69 52.424 2587.33 53 2583.44 53H2564.21V1.592H2580.2ZM2581.42 21.968C2584.59 21.968 2586.77 21.464 2587.97 20.456C2589.22 19.448 2589.85 17.984 2589.85 16.064C2589.85 14.096 2589.13 12.68 2587.69 11.816C2586.25 10.952 2583.97 10.52 2580.85 10.52H2575.09V21.968H2581.42ZM2575.09 30.608V44H2582.21C2585.48 44 2587.76 43.376 2589.05 42.128C2590.35 40.832 2591 39.128 2591 37.016C2591 35.72 2590.71 34.592 2590.13 33.632C2589.61 32.672 2588.67 31.928 2587.33 31.4C2585.98 30.872 2584.16 30.608 2581.85 30.608H2575.09ZM2659.25 27.224C2659.25 31.208 2658.74 34.832 2657.73 38.096C2656.77 41.312 2655.29 44.096 2653.27 46.448C2651.3 48.8 2648.76 50.6 2645.64 51.848C2642.57 53.096 2638.94 53.72 2634.77 53.72C2630.59 53.72 2626.94 53.096 2623.82 51.848C2620.75 50.552 2618.21 48.752 2616.19 46.448C2614.22 44.096 2612.73 41.288 2611.73 38.024C2610.77 34.76 2610.29 31.136 2610.29 27.152C2610.29 21.824 2611.15 17.192 2612.88 13.256C2614.65 9.32 2617.34 6.272 2620.94 4.112C2624.59 1.904 2629.22 0.799998 2634.84 0.799998C2640.41 0.799998 2644.99 1.904 2648.59 4.112C2652.19 6.272 2654.85 9.344 2656.58 13.328C2658.36 17.264 2659.25 21.896 2659.25 27.224ZM2621.73 27.224C2621.73 30.824 2622.19 33.92 2623.1 36.512C2624.01 39.104 2625.43 41.096 2627.35 42.488C2629.27 43.88 2631.74 44.576 2634.77 44.576C2637.89 44.576 2640.38 43.88 2642.25 42.488C2644.17 41.096 2645.57 39.104 2646.43 36.512C2647.34 33.92 2647.8 30.824 2647.8 27.224C2647.8 21.8 2646.79 17.552 2644.77 14.48C2642.76 11.408 2639.45 9.872 2634.84 9.872C2631.77 9.872 2629.27 10.568 2627.35 11.96C2625.43 13.352 2624.01 15.344 2623.1 17.936C2622.19 20.528 2621.73 23.624 2621.73 27.224ZM2684.87 1.592C2689.53 1.592 2693.37 2.168 2696.39 3.32C2699.41 4.424 2701.67 6.128 2703.16 8.432C2704.65 10.688 2705.39 13.544 2705.39 17C2705.39 19.352 2704.93 21.416 2704.02 23.192C2703.16 24.92 2701.98 26.408 2700.49 27.656C2699.05 28.856 2697.49 29.84 2695.81 30.608L2710.93 53H2698.84L2686.6 33.272H2680.77V53H2669.89V1.592H2684.87ZM2684.08 10.52H2680.77V24.416H2684.29C2686.69 24.416 2688.64 24.152 2690.13 23.624C2691.61 23.096 2692.69 22.304 2693.37 21.248C2694.04 20.144 2694.37 18.824 2694.37 17.288C2694.37 15.656 2693.99 14.36 2693.22 13.4C2692.5 12.392 2691.37 11.672 2689.84 11.24C2688.35 10.76 2686.43 10.52 2684.08 10.52ZM2748.89 53L2745.15 40.76H2726.43L2722.68 53H2710.95L2729.09 1.376H2742.41L2760.63 53H2748.89ZM2738.81 19.664C2738.57 18.848 2738.26 17.816 2737.87 16.568C2737.49 15.32 2737.11 14.048 2736.72 12.752C2736.34 11.456 2736.03 10.328 2735.79 9.368C2735.55 10.328 2735.21 11.528 2734.78 12.968C2734.39 14.36 2734.01 15.704 2733.63 17C2733.29 18.248 2733.03 19.136 2732.83 19.664L2729.16 31.616H2742.55L2738.81 19.664ZM2781.87 53H2771V10.664H2757.03V1.592H2795.84V10.664H2781.87V53ZM2822.99 53H2799.59V46.808L2805.86 43.928V10.664L2799.59 7.784V1.592H2822.99V7.784L2816.73 10.664V43.928L2822.99 46.808V53ZM2878.41 27.224C2878.41 31.208 2877.91 34.832 2876.9 38.096C2875.94 41.312 2874.45 44.096 2872.43 46.448C2870.47 48.8 2867.92 50.6 2864.8 51.848C2861.73 53.096 2858.11 53.72 2853.93 53.72C2849.75 53.72 2846.11 53.096 2842.99 51.848C2839.91 50.552 2837.37 48.752 2835.35 46.448C2833.39 44.096 2831.9 41.288 2830.89 38.024C2829.93 34.76 2829.45 31.136 2829.45 27.152C2829.45 21.824 2830.31 17.192 2832.04 13.256C2833.82 9.32 2836.51 6.272 2840.11 4.112C2843.75 1.904 2848.39 0.799998 2854 0.799998C2859.57 0.799998 2864.15 1.904 2867.75 4.112C2871.35 6.272 2874.02 9.344 2875.75 13.328C2877.52 17.264 2878.41 21.896 2878.41 27.224ZM2840.9 27.224C2840.9 30.824 2841.35 33.92 2842.27 36.512C2843.18 39.104 2844.59 41.096 2846.51 42.488C2848.43 43.88 2850.91 44.576 2853.93 44.576C2857.05 44.576 2859.55 43.88 2861.42 42.488C2863.34 41.096 2864.73 39.104 2865.59 36.512C2866.51 33.92 2866.96 30.824 2866.96 27.224C2866.96 21.8 2865.95 17.552 2863.94 14.48C2861.92 11.408 2858.61 9.872 2854 9.872C2850.93 9.872 2848.43 10.568 2846.51 11.96C2844.59 13.352 2843.18 15.344 2842.27 17.936C2841.35 20.528 2840.9 23.624 2840.9 27.224ZM2934.63 53H2920.81L2898.42 14.12H2898.13C2898.18 15.32 2898.23 16.544 2898.27 17.792C2898.32 18.992 2898.37 20.216 2898.42 21.464C2898.51 22.664 2898.59 23.888 2898.63 25.136C2898.68 26.336 2898.73 27.56 2898.78 28.808V53H2889.06V1.592H2902.81L2925.13 40.112H2925.35C2925.3 38.912 2925.25 37.736 2925.2 36.584C2925.15 35.384 2925.11 34.208 2925.06 33.056C2925.06 31.856 2925.03 30.68 2924.99 29.528C2924.94 28.328 2924.89 27.128 2924.84 25.928V1.592H2934.63V53ZM2977.94 38.744C2977.94 41.768 2977.2 44.408 2975.71 46.664C2974.22 48.92 2972.06 50.672 2969.23 51.92C2966.44 53.12 2963.04 53.72 2959 53.72C2957.23 53.72 2955.48 53.6 2953.75 53.36C2952.07 53.12 2950.44 52.784 2948.85 52.352C2947.32 51.872 2945.85 51.296 2944.46 50.624V40.472C2946.91 41.528 2949.43 42.512 2952.02 43.424C2954.66 44.288 2957.28 44.72 2959.87 44.72C2961.64 44.72 2963.06 44.48 2964.12 44C2965.22 43.52 2966.01 42.872 2966.49 42.056C2967.02 41.24 2967.28 40.304 2967.28 39.248C2967.28 37.952 2966.83 36.848 2965.92 35.936C2965.05 35.024 2963.88 34.184 2962.39 33.416C2960.9 32.6 2959.2 31.736 2957.28 30.824C2956.08 30.248 2954.78 29.576 2953.39 28.808C2952 27.992 2950.65 27.008 2949.36 25.856C2948.11 24.656 2947.08 23.216 2946.26 21.536C2945.44 19.856 2945.04 17.84 2945.04 15.488C2945.04 12.416 2945.73 9.8 2947.12 7.64C2948.56 5.432 2950.58 3.752 2953.17 2.6C2955.81 1.448 2958.91 0.871997 2962.46 0.871997C2965.15 0.871997 2967.69 1.184 2970.09 1.808C2972.54 2.432 2975.08 3.32 2977.72 4.472L2974.2 12.968C2971.84 12.008 2969.73 11.264 2967.86 10.736C2965.99 10.208 2964.07 9.944 2962.1 9.944C2960.76 9.944 2959.6 10.16 2958.64 10.592C2957.68 11.024 2956.94 11.624 2956.41 12.392C2955.93 13.16 2955.69 14.072 2955.69 15.128C2955.69 16.328 2956.05 17.36 2956.77 18.224C2957.49 19.04 2958.57 19.832 2960.01 20.6C2961.45 21.368 2963.25 22.28 2965.41 23.336C2968.05 24.584 2970.28 25.88 2972.11 27.224C2973.98 28.568 2975.42 30.152 2976.43 31.976C2977.44 33.8 2977.94 36.056 2977.94 38.744ZM2984.91 47.96C2984.91 45.752 2985.51 44.216 2986.71 43.352C2987.91 42.44 2989.37 41.984 2991.1 41.984C2992.78 41.984 2994.22 42.44 2995.42 43.352C2996.62 44.216 2997.22 45.752 2997.22 47.96C2997.22 50.072 2996.62 51.608 2995.42 52.568C2994.22 53.48 2992.78 53.936 2991.1 53.936C2989.37 53.936 2987.91 53.48 2986.71 52.568C2985.51 51.608 2984.91 50.072 2984.91 47.96Z" fill="#333333"/>
</svg>
