<svg width="200" height="60" viewBox="0 0 200 60" fill="none" xmlns="http://www.w3.org/2000/svg">
<rect width="200" height="60" rx="4" fill="#1E44F1"/>
<path d="M35.824 30.352C35.824 32.912 35.3333 35.056 34.352 36.784C33.3707 38.512 31.9413 39.8133 30.064 40.688C28.208 41.5627 25.968 42 23.344 42H16.88V19.152H24.048C26.4373 19.152 28.5067 19.5787 30.256 20.432C32.0267 21.2853 33.392 22.544 34.352 24.208C35.3333 25.8507 35.824 27.8987 35.824 30.352ZM30.8 30.48C30.8 28.7947 30.5547 27.408 30.064 26.32C29.5733 25.232 28.8373 24.432 27.856 23.92C26.896 23.3867 25.712 23.12 24.304 23.12H21.712V38H23.792C26.16 38 27.92 37.3707 29.072 36.112C30.224 34.8533 30.8 32.976 30.8 30.48ZM53.7195 42H40.5675V19.152H53.7195V23.12H45.3995V28.144H53.1435V32.112H45.3995V38H53.7195V42ZM68.1378 42L62.6338 24.08H62.5058C62.5271 24.5067 62.5591 25.1467 62.6018 26C62.6444 26.8533 62.6871 27.7707 62.7298 28.752C62.7724 29.712 62.7938 30.5867 62.7938 31.376V42H58.4738V19.152H65.0658L70.4738 36.624H70.5698L76.2978 19.152H82.8898V42H78.3778V31.184C78.3778 30.4587 78.3884 29.6267 78.4098 28.688C78.4524 27.7493 78.4844 26.864 78.5058 26.032C78.5484 25.1787 78.5804 24.5387 78.6018 24.112H78.4738L72.5858 42H68.1378ZM109.397 30.544C109.397 32.3147 109.173 33.9253 108.725 35.376C108.299 36.8053 107.637 38.0427 106.741 39.088C105.867 40.1333 104.736 40.9333 103.349 41.488C101.984 42.0427 100.373 42.32 98.5173 42.32C96.6613 42.32 95.0399 42.0427 93.6533 41.488C92.2879 40.912 91.1573 40.112 90.2613 39.088C89.3866 38.0427 88.7253 36.7947 88.2773 35.344C87.8506 33.8933 87.6373 32.2827 87.6373 30.512C87.6373 28.144 88.0213 26.0853 88.7893 24.336C89.5786 22.5867 90.7733 21.232 92.3733 20.272C93.9946 19.2907 96.0533 18.8 98.5493 18.8C101.024 18.8 103.061 19.2907 104.661 20.272C106.261 21.232 107.445 22.5973 108.213 24.368C109.003 26.1173 109.397 28.176 109.397 30.544ZM92.7253 30.544C92.7253 32.144 92.9279 33.52 93.3333 34.672C93.7386 35.824 94.3679 36.7093 95.2213 37.328C96.0746 37.9467 97.1733 38.256 98.5173 38.256C99.9039 38.256 101.013 37.9467 101.845 37.328C102.699 36.7093 103.317 35.824 103.701 34.672C104.107 33.52 104.309 32.144 104.309 30.544C104.309 28.1333 103.861 26.2453 102.965 24.88C102.069 23.5147 100.597 22.832 98.5493 22.832C97.1839 22.832 96.0746 23.1413 95.2213 23.76C94.3679 24.3787 93.7386 25.264 93.3333 26.416C92.9279 27.568 92.7253 28.944 92.7253 30.544ZM135.915 35.664C135.915 37.008 135.584 38.1813 134.923 39.184C134.261 40.1867 133.301 40.9653 132.043 41.52C130.805 42.0533 129.291 42.32 127.499 42.32C126.709 42.32 125.931 42.2667 125.163 42.16C124.416 42.0533 123.691 41.904 122.987 41.712C122.304 41.4987 121.653 41.2427 121.035 40.944V36.432C122.123 36.9013 123.243 37.3387 124.395 37.744C125.568 38.128 126.731 38.32 127.883 38.32C128.672 38.32 129.301 38.2133 129.771 38C130.261 37.7867 130.613 37.4987 130.827 37.136C131.061 36.7733 131.179 36.3573 131.179 35.888C131.179 35.312 130.976 34.8213 130.571 34.416C130.187 34.0107 129.664 33.6373 129.003 33.296C128.341 32.9333 127.584 32.5493 126.731 32.144C126.197 31.888 125.621 31.5893 125.003 31.248C124.384 30.8853 123.787 30.448 123.211 29.936C122.656 29.4027 122.197 28.7627 121.835 28.016C121.472 27.2693 121.291 26.3733 121.291 25.328C121.291 23.9627 121.6 22.8 122.219 21.84C122.859 20.8587 123.755 20.112 124.907 19.6C126.08 19.088 127.456 18.832 129.035 18.832C130.229 18.832 131.36 18.9707 132.427 19.248C133.515 19.5253 134.645 19.92 135.819 20.432L134.251 24.208C133.205 23.7813 132.267 23.4507 131.435 23.216C130.603 22.9813 129.749 22.864 128.875 22.864C128.277 22.864 127.765 22.96 127.339 23.152C126.912 23.344 126.581 23.6107 126.347 23.952C126.133 24.2933 126.027 24.6987 126.027 25.168C126.027 25.7013 126.187 26.16 126.507 26.544C126.827 26.9067 127.307 27.2587 127.947 27.6C128.587 27.9413 129.387 28.3467 130.347 28.816C131.52 29.3707 132.512 29.9467 133.323 30.544C134.155 31.1413 134.795 31.8453 135.243 32.656C135.691 33.4667 135.915 34.4693 135.915 35.664ZM148.612 42H138.212V39.248L140.996 37.968V23.184L138.212 21.904V19.152H148.612V21.904L145.828 23.184V37.968L148.612 39.248V42ZM161.305 42H156.473V23.184H150.265V19.152H167.513V23.184H161.305V42ZM184.188 42H171.036V19.152H184.188V23.12H175.868V28.144H183.612V32.112H175.868V38H184.188V42Z" fill="white"/>
</svg>
